<mxfile host="app.diagrams.net" modified="2024-04-29T13:06:23.718Z" agent="Mozilla/5.0 (Macintosh; Intel Mac OS X 10_15_7) AppleWebKit/605.1.15 (KHTML, like Gecko) Version/17.4.1 Safari/605.1.15" etag="hYNB3AAl4Dz9fhbLT4nL" version="24.3.1" type="github" pages="7">
  <diagram name="회원가입" id="2YBvvXClWsGukQMizWep">
    <mxGraphModel dx="594" dy="738" grid="1" gridSize="10" guides="1" tooltips="1" connect="1" arrows="1" fold="1" page="1" pageScale="1" pageWidth="850" pageHeight="1100" math="0" shadow="0">
      <root>
        <mxCell id="0" />
        <mxCell id="1" parent="0" />
        <mxCell id="lmq6LwTFipSiw43jhtWt-1" value="비회원" style="shape=umlActor;verticalLabelPosition=bottom;verticalAlign=top;html=1;outlineConnect=0;" vertex="1" parent="1">
          <mxGeometry x="100" y="80" width="30" height="60" as="geometry" />
        </mxCell>
        <mxCell id="lmq6LwTFipSiw43jhtWt-6" value="" style="endArrow=none;dashed=1;html=1;rounded=0;fontSize=12;startSize=8;endSize=8;curved=1;" edge="1" parent="1" source="qiXM5G81pv3pnYCw4iOo-1">
          <mxGeometry width="50" height="50" relative="1" as="geometry">
            <mxPoint x="114" y="720" as="sourcePoint" />
            <mxPoint x="114.5" y="170" as="targetPoint" />
          </mxGeometry>
        </mxCell>
        <mxCell id="lmq6LwTFipSiw43jhtWt-7" value="회원가입" style="text;html=1;align=center;verticalAlign=middle;whiteSpace=wrap;rounded=0;fontSize=16;" vertex="1" parent="1">
          <mxGeometry x="50" y="30" width="60" height="30" as="geometry" />
        </mxCell>
        <mxCell id="lmq6LwTFipSiw43jhtWt-12" value="사용자 관리 서버" style="rounded=1;whiteSpace=wrap;html=1;" vertex="1" parent="1">
          <mxGeometry x="320" y="80" width="120" height="60" as="geometry" />
        </mxCell>
        <mxCell id="lmq6LwTFipSiw43jhtWt-13" value="사용자 관리&lt;div&gt;DB&lt;/div&gt;" style="shape=cylinder3;whiteSpace=wrap;html=1;boundedLbl=1;backgroundOutline=1;size=15;" vertex="1" parent="1">
          <mxGeometry x="620" y="70" width="100" height="80" as="geometry" />
        </mxCell>
        <mxCell id="lmq6LwTFipSiw43jhtWt-14" value="" style="endArrow=none;dashed=1;html=1;dashPattern=1 3;strokeWidth=2;rounded=0;fontSize=12;startSize=8;endSize=8;curved=1;entryX=0.5;entryY=1;entryDx=0;entryDy=0;" edge="1" parent="1" target="lmq6LwTFipSiw43jhtWt-12">
          <mxGeometry width="50" height="50" relative="1" as="geometry">
            <mxPoint x="380" y="490" as="sourcePoint" />
            <mxPoint x="360" y="330" as="targetPoint" />
          </mxGeometry>
        </mxCell>
        <mxCell id="lmq6LwTFipSiw43jhtWt-15" value="" style="endArrow=none;dashed=1;html=1;rounded=0;fontSize=12;startSize=8;endSize=8;curved=1;entryX=0.5;entryY=1;entryDx=0;entryDy=0;entryPerimeter=0;" edge="1" parent="1" source="lmq6LwTFipSiw43jhtWt-20" target="lmq6LwTFipSiw43jhtWt-13">
          <mxGeometry width="50" height="50" relative="1" as="geometry">
            <mxPoint x="670" y="730" as="sourcePoint" />
            <mxPoint x="400" y="410" as="targetPoint" />
          </mxGeometry>
        </mxCell>
        <mxCell id="lmq6LwTFipSiw43jhtWt-18" value="" style="rounded=0;whiteSpace=wrap;html=1;" vertex="1" parent="1">
          <mxGeometry x="367.5" y="200" width="25" height="240" as="geometry" />
        </mxCell>
        <mxCell id="lmq6LwTFipSiw43jhtWt-16" value="회원 가입 정보 입력" style="html=1;verticalAlign=bottom;endArrow=block;curved=0;rounded=0;fontSize=12;startSize=8;endSize=8;" edge="1" parent="1">
          <mxGeometry width="80" relative="1" as="geometry">
            <mxPoint x="120" y="220" as="sourcePoint" />
            <mxPoint x="370" y="220" as="targetPoint" />
          </mxGeometry>
        </mxCell>
        <mxCell id="lmq6LwTFipSiw43jhtWt-19" value="이미 존재하는 회원은 아닌지 확인" style="html=1;verticalAlign=bottom;endArrow=block;curved=0;rounded=0;fontSize=12;startSize=8;endSize=8;entryX=0;entryY=0.5;entryDx=0;entryDy=0;" edge="1" parent="1" target="lmq6LwTFipSiw43jhtWt-20">
          <mxGeometry x="-0.0006" width="80" relative="1" as="geometry">
            <mxPoint x="392.5" y="230" as="sourcePoint" />
            <mxPoint x="642.5" y="230" as="targetPoint" />
            <mxPoint as="offset" />
          </mxGeometry>
        </mxCell>
        <mxCell id="lmq6LwTFipSiw43jhtWt-21" value="" style="endArrow=none;dashed=1;html=1;rounded=0;fontSize=12;startSize=8;endSize=8;curved=1;entryX=0.5;entryY=1;entryDx=0;entryDy=0;entryPerimeter=0;" edge="1" parent="1" source="lmq6LwTFipSiw43jhtWt-23" target="lmq6LwTFipSiw43jhtWt-20">
          <mxGeometry width="50" height="50" relative="1" as="geometry">
            <mxPoint x="670" y="730" as="sourcePoint" />
            <mxPoint x="670" y="150" as="targetPoint" />
          </mxGeometry>
        </mxCell>
        <mxCell id="lmq6LwTFipSiw43jhtWt-20" value="" style="rounded=0;whiteSpace=wrap;html=1;" vertex="1" parent="1">
          <mxGeometry x="656" y="216" width="25" height="30" as="geometry" />
        </mxCell>
        <mxCell id="lmq6LwTFipSiw43jhtWt-22" value="적합할 경우, 회원가입 정보 새로운 사용자로 등록" style="html=1;verticalAlign=bottom;endArrow=block;curved=0;rounded=0;fontSize=12;startSize=8;endSize=8;entryX=0;entryY=0.5;entryDx=0;entryDy=0;" edge="1" parent="1">
          <mxGeometry x="-0.0006" width="80" relative="1" as="geometry">
            <mxPoint x="392.5" y="400" as="sourcePoint" />
            <mxPoint x="656" y="401" as="targetPoint" />
            <mxPoint as="offset" />
          </mxGeometry>
        </mxCell>
        <mxCell id="lmq6LwTFipSiw43jhtWt-24" value="" style="endArrow=none;dashed=1;html=1;rounded=0;fontSize=12;startSize=8;endSize=8;curved=1;entryX=0.5;entryY=1;entryDx=0;entryDy=0;entryPerimeter=0;" edge="1" parent="1" target="lmq6LwTFipSiw43jhtWt-23">
          <mxGeometry width="50" height="50" relative="1" as="geometry">
            <mxPoint x="669" y="500" as="sourcePoint" />
            <mxPoint x="669" y="246" as="targetPoint" />
          </mxGeometry>
        </mxCell>
        <mxCell id="lmq6LwTFipSiw43jhtWt-23" value="" style="rounded=0;whiteSpace=wrap;html=1;" vertex="1" parent="1">
          <mxGeometry x="656" y="380" width="25" height="30" as="geometry" />
        </mxCell>
        <mxCell id="lmq6LwTFipSiw43jhtWt-25" value="" style="html=1;points=[[0,0,0,0,5],[0,1,0,0,-5],[1,0,0,0,5],[1,1,0,0,-5]];perimeter=orthogonalPerimeter;outlineConnect=0;targetShapes=umlLifeline;portConstraint=eastwest;newEdgeStyle={&quot;curved&quot;:0,&quot;rounded&quot;:0};" vertex="1" parent="1">
          <mxGeometry x="390" y="266" width="10" height="40" as="geometry" />
        </mxCell>
        <mxCell id="lmq6LwTFipSiw43jhtWt-26" value="비밀번호와 비밀번호 확인 일치하는지 확인" style="html=1;align=left;spacingLeft=2;endArrow=block;rounded=0;edgeStyle=orthogonalEdgeStyle;curved=0;rounded=0;fontSize=12;startSize=8;endSize=8;" edge="1" target="lmq6LwTFipSiw43jhtWt-25" parent="1">
          <mxGeometry relative="1" as="geometry">
            <mxPoint x="395" y="246" as="sourcePoint" />
            <Array as="points">
              <mxPoint x="425" y="276" />
            </Array>
          </mxGeometry>
        </mxCell>
        <mxCell id="lmq6LwTFipSiw43jhtWt-27" value="회원 가입 완료 공지" style="html=1;verticalAlign=bottom;endArrow=block;curved=0;rounded=0;fontSize=12;startSize=8;endSize=8;exitX=-0.033;exitY=0.848;exitDx=0;exitDy=0;exitPerimeter=0;entryX=1;entryY=0.5;entryDx=0;entryDy=0;" edge="1" parent="1">
          <mxGeometry width="80" relative="1" as="geometry">
            <mxPoint x="366.67499999999995" y="425.55999999999995" as="sourcePoint" />
            <mxPoint x="130" y="424" as="targetPoint" />
          </mxGeometry>
        </mxCell>
        <mxCell id="lmq6LwTFipSiw43jhtWt-29" value="예외 상황 발생 시, 회원가입 거부 사유 공지" style="html=1;verticalAlign=bottom;endArrow=block;curved=0;rounded=0;fontSize=12;startSize=8;endSize=8;exitX=-0.033;exitY=0.848;exitDx=0;exitDy=0;exitPerimeter=0;" edge="1" parent="1">
          <mxGeometry width="80" relative="1" as="geometry">
            <mxPoint x="367.5" y="310" as="sourcePoint" />
            <mxPoint x="130" y="310" as="targetPoint" />
          </mxGeometry>
        </mxCell>
        <mxCell id="lmq6LwTFipSiw43jhtWt-32" value="" style="endArrow=none;dashed=1;html=1;rounded=0;fontSize=12;startSize=8;endSize=8;curved=1;" edge="1" parent="1">
          <mxGeometry width="50" height="50" relative="1" as="geometry">
            <mxPoint x="115" y="410" as="sourcePoint" />
            <mxPoint x="115" y="325" as="targetPoint" />
          </mxGeometry>
        </mxCell>
        <mxCell id="lmq6LwTFipSiw43jhtWt-34" value="" style="endArrow=none;dashed=1;html=1;rounded=0;fontSize=12;startSize=8;endSize=8;curved=1;" edge="1" parent="1">
          <mxGeometry width="50" height="50" relative="1" as="geometry">
            <mxPoint x="114" y="500" as="sourcePoint" />
            <mxPoint x="114.79999999999995" y="440" as="targetPoint" />
          </mxGeometry>
        </mxCell>
        <mxCell id="qiXM5G81pv3pnYCw4iOo-2" value="" style="endArrow=none;dashed=1;html=1;rounded=0;fontSize=12;startSize=8;endSize=8;curved=1;" edge="1" parent="1" target="qiXM5G81pv3pnYCw4iOo-1">
          <mxGeometry width="50" height="50" relative="1" as="geometry">
            <mxPoint x="115" y="295" as="sourcePoint" />
            <mxPoint x="114.5" y="170" as="targetPoint" />
          </mxGeometry>
        </mxCell>
        <mxCell id="qiXM5G81pv3pnYCw4iOo-1" value="" style="rounded=0;whiteSpace=wrap;html=1;" vertex="1" parent="1">
          <mxGeometry x="100" y="200" width="30" height="240" as="geometry" />
        </mxCell>
      </root>
    </mxGraphModel>
  </diagram>
  <diagram name="로그인" id="xfcTjQgRxjcba2ydF7YO">
    <mxGraphModel dx="699" dy="868" grid="1" gridSize="10" guides="1" tooltips="1" connect="1" arrows="1" fold="1" page="1" pageScale="1" pageWidth="850" pageHeight="1100" math="0" shadow="0">
      <root>
        <mxCell id="_w-2rEdW2O8Vtb92VAKG-0" />
        <mxCell id="_w-2rEdW2O8Vtb92VAKG-1" parent="_w-2rEdW2O8Vtb92VAKG-0" />
        <mxCell id="_w-2rEdW2O8Vtb92VAKG-2" value="회원" style="shape=umlActor;verticalLabelPosition=bottom;verticalAlign=top;html=1;outlineConnect=0;" vertex="1" parent="_w-2rEdW2O8Vtb92VAKG-1">
          <mxGeometry x="100" y="80" width="30" height="60" as="geometry" />
        </mxCell>
        <mxCell id="_w-2rEdW2O8Vtb92VAKG-4" value="로그인" style="text;html=1;align=center;verticalAlign=middle;whiteSpace=wrap;rounded=0;fontSize=16;" vertex="1" parent="_w-2rEdW2O8Vtb92VAKG-1">
          <mxGeometry x="50" y="30" width="60" height="30" as="geometry" />
        </mxCell>
        <mxCell id="_w-2rEdW2O8Vtb92VAKG-5" value="사용자 관리 서버" style="rounded=1;whiteSpace=wrap;html=1;" vertex="1" parent="_w-2rEdW2O8Vtb92VAKG-1">
          <mxGeometry x="320" y="80" width="120" height="60" as="geometry" />
        </mxCell>
        <mxCell id="_w-2rEdW2O8Vtb92VAKG-6" value="사용자 관리&lt;div&gt;DB&lt;/div&gt;" style="shape=cylinder3;whiteSpace=wrap;html=1;boundedLbl=1;backgroundOutline=1;size=15;" vertex="1" parent="_w-2rEdW2O8Vtb92VAKG-1">
          <mxGeometry x="620" y="70" width="100" height="80" as="geometry" />
        </mxCell>
        <mxCell id="_w-2rEdW2O8Vtb92VAKG-7" value="" style="endArrow=none;dashed=1;html=1;dashPattern=1 3;strokeWidth=2;rounded=0;fontSize=12;startSize=8;endSize=8;curved=1;entryX=0.5;entryY=1;entryDx=0;entryDy=0;" edge="1" parent="_w-2rEdW2O8Vtb92VAKG-1" target="_w-2rEdW2O8Vtb92VAKG-5">
          <mxGeometry width="50" height="50" relative="1" as="geometry">
            <mxPoint x="380" y="490" as="sourcePoint" />
            <mxPoint x="360" y="330" as="targetPoint" />
          </mxGeometry>
        </mxCell>
        <mxCell id="_w-2rEdW2O8Vtb92VAKG-8" value="" style="endArrow=none;dashed=1;html=1;rounded=0;fontSize=12;startSize=8;endSize=8;curved=1;entryX=0.5;entryY=1;entryDx=0;entryDy=0;entryPerimeter=0;" edge="1" parent="_w-2rEdW2O8Vtb92VAKG-1" source="_w-2rEdW2O8Vtb92VAKG-13" target="_w-2rEdW2O8Vtb92VAKG-6">
          <mxGeometry width="50" height="50" relative="1" as="geometry">
            <mxPoint x="670" y="730" as="sourcePoint" />
            <mxPoint x="400" y="410" as="targetPoint" />
          </mxGeometry>
        </mxCell>
        <mxCell id="_w-2rEdW2O8Vtb92VAKG-9" value="" style="rounded=0;whiteSpace=wrap;html=1;" vertex="1" parent="_w-2rEdW2O8Vtb92VAKG-1">
          <mxGeometry x="367.5" y="200" width="25" height="240" as="geometry" />
        </mxCell>
        <mxCell id="_w-2rEdW2O8Vtb92VAKG-10" value="로그인 정보 입력" style="html=1;verticalAlign=bottom;endArrow=block;curved=0;rounded=0;fontSize=12;startSize=8;endSize=8;" edge="1" parent="_w-2rEdW2O8Vtb92VAKG-1">
          <mxGeometry width="80" relative="1" as="geometry">
            <mxPoint x="120" y="220" as="sourcePoint" />
            <mxPoint x="370" y="220" as="targetPoint" />
            <mxPoint as="offset" />
          </mxGeometry>
        </mxCell>
        <mxCell id="_w-2rEdW2O8Vtb92VAKG-11" value="입력 정보가 DB에 존재하는 정보와 일치하는지 확인" style="html=1;verticalAlign=bottom;endArrow=block;curved=0;rounded=0;fontSize=12;startSize=8;endSize=8;entryX=0;entryY=0.5;entryDx=0;entryDy=0;" edge="1" parent="_w-2rEdW2O8Vtb92VAKG-1">
          <mxGeometry x="-0.0006" width="80" relative="1" as="geometry">
            <mxPoint x="392.5" y="260" as="sourcePoint" />
            <mxPoint x="656" y="261" as="targetPoint" />
            <mxPoint as="offset" />
          </mxGeometry>
        </mxCell>
        <mxCell id="_w-2rEdW2O8Vtb92VAKG-12" value="" style="endArrow=none;dashed=1;html=1;rounded=0;fontSize=12;startSize=8;endSize=8;curved=1;entryX=0.5;entryY=1;entryDx=0;entryDy=0;entryPerimeter=0;" edge="1" parent="_w-2rEdW2O8Vtb92VAKG-1" source="_w-2rEdW2O8Vtb92VAKG-16" target="_w-2rEdW2O8Vtb92VAKG-13">
          <mxGeometry width="50" height="50" relative="1" as="geometry">
            <mxPoint x="670" y="730" as="sourcePoint" />
            <mxPoint x="670" y="150" as="targetPoint" />
          </mxGeometry>
        </mxCell>
        <mxCell id="_w-2rEdW2O8Vtb92VAKG-13" value="" style="rounded=0;whiteSpace=wrap;html=1;" vertex="1" parent="_w-2rEdW2O8Vtb92VAKG-1">
          <mxGeometry x="656" y="240" width="25" height="30" as="geometry" />
        </mxCell>
        <mxCell id="_w-2rEdW2O8Vtb92VAKG-14" value="입력받은 내용과 DB의 데이터 대조" style="html=1;verticalAlign=bottom;endArrow=block;curved=0;rounded=0;fontSize=12;startSize=8;endSize=8;entryX=0;entryY=0.5;entryDx=0;entryDy=0;" edge="1" parent="_w-2rEdW2O8Vtb92VAKG-1">
          <mxGeometry x="-0.0006" width="80" relative="1" as="geometry">
            <mxPoint x="392.5" y="400" as="sourcePoint" />
            <mxPoint x="656" y="401" as="targetPoint" />
            <mxPoint as="offset" />
          </mxGeometry>
        </mxCell>
        <mxCell id="_w-2rEdW2O8Vtb92VAKG-15" value="" style="endArrow=none;dashed=1;html=1;rounded=0;fontSize=12;startSize=8;endSize=8;curved=1;entryX=0.5;entryY=1;entryDx=0;entryDy=0;entryPerimeter=0;" edge="1" parent="_w-2rEdW2O8Vtb92VAKG-1" target="_w-2rEdW2O8Vtb92VAKG-16">
          <mxGeometry width="50" height="50" relative="1" as="geometry">
            <mxPoint x="669" y="500" as="sourcePoint" />
            <mxPoint x="669" y="246" as="targetPoint" />
          </mxGeometry>
        </mxCell>
        <mxCell id="_w-2rEdW2O8Vtb92VAKG-16" value="" style="rounded=0;whiteSpace=wrap;html=1;" vertex="1" parent="_w-2rEdW2O8Vtb92VAKG-1">
          <mxGeometry x="656" y="380" width="25" height="30" as="geometry" />
        </mxCell>
        <mxCell id="_w-2rEdW2O8Vtb92VAKG-19" value="서비스 선택 화면으로 이동" style="html=1;verticalAlign=bottom;endArrow=block;curved=0;rounded=0;fontSize=12;startSize=8;endSize=8;exitX=-0.033;exitY=0.848;exitDx=0;exitDy=0;exitPerimeter=0;entryX=1;entryY=0.5;entryDx=0;entryDy=0;" edge="1" parent="_w-2rEdW2O8Vtb92VAKG-1">
          <mxGeometry width="80" relative="1" as="geometry">
            <mxPoint x="366.67499999999995" y="426.55999999999995" as="sourcePoint" />
            <mxPoint x="130" y="425" as="targetPoint" />
          </mxGeometry>
        </mxCell>
        <mxCell id="_w-2rEdW2O8Vtb92VAKG-20" value="예외 상황 발생 시, 로그인 거부 사유 공지" style="html=1;verticalAlign=bottom;endArrow=block;curved=0;rounded=0;fontSize=12;startSize=8;endSize=8;exitX=-0.033;exitY=0.848;exitDx=0;exitDy=0;exitPerimeter=0;" edge="1" parent="_w-2rEdW2O8Vtb92VAKG-1">
          <mxGeometry width="80" relative="1" as="geometry">
            <mxPoint x="367.5" y="310" as="sourcePoint" />
            <mxPoint x="130" y="310" as="targetPoint" />
          </mxGeometry>
        </mxCell>
        <mxCell id="_w-2rEdW2O8Vtb92VAKG-21" value="" style="endArrow=none;dashed=1;html=1;rounded=0;fontSize=12;startSize=8;endSize=8;curved=1;" edge="1" parent="_w-2rEdW2O8Vtb92VAKG-1">
          <mxGeometry width="50" height="50" relative="1" as="geometry">
            <mxPoint x="115" y="410" as="sourcePoint" />
            <mxPoint x="115" y="325" as="targetPoint" />
          </mxGeometry>
        </mxCell>
        <mxCell id="_w-2rEdW2O8Vtb92VAKG-23" value="" style="endArrow=none;dashed=1;html=1;rounded=0;fontSize=12;startSize=8;endSize=8;curved=1;" edge="1" parent="_w-2rEdW2O8Vtb92VAKG-1">
          <mxGeometry width="50" height="50" relative="1" as="geometry">
            <mxPoint x="114" y="500" as="sourcePoint" />
            <mxPoint x="114.80000000000007" y="440" as="targetPoint" />
          </mxGeometry>
        </mxCell>
        <mxCell id="_w-2rEdW2O8Vtb92VAKG-26" value="" style="endArrow=none;dashed=1;html=1;rounded=0;fontSize=12;startSize=8;endSize=8;curved=1;" edge="1" parent="_w-2rEdW2O8Vtb92VAKG-1">
          <mxGeometry width="50" height="50" relative="1" as="geometry">
            <mxPoint x="115" y="295" as="sourcePoint" />
            <mxPoint x="115" y="170" as="targetPoint" />
          </mxGeometry>
        </mxCell>
        <mxCell id="_w-2rEdW2O8Vtb92VAKG-27" value="" style="rounded=0;whiteSpace=wrap;html=1;" vertex="1" parent="_w-2rEdW2O8Vtb92VAKG-1">
          <mxGeometry x="100" y="200" width="30" height="250" as="geometry" />
        </mxCell>
      </root>
    </mxGraphModel>
  </diagram>
  <diagram name="잔여 좌석 조회" id="xvWgONUb2aXQiGLllSk1">
    <mxGraphModel dx="849" dy="1054" grid="1" gridSize="10" guides="1" tooltips="1" connect="1" arrows="1" fold="1" page="1" pageScale="1" pageWidth="850" pageHeight="1100" math="0" shadow="0">
      <root>
        <mxCell id="2KBXHVVGUYB0KBsjJUZ5-0" />
        <mxCell id="2KBXHVVGUYB0KBsjJUZ5-1" parent="2KBXHVVGUYB0KBsjJUZ5-0" />
        <mxCell id="2KBXHVVGUYB0KBsjJUZ5-2" value="회원" style="shape=umlActor;verticalLabelPosition=bottom;verticalAlign=top;html=1;outlineConnect=0;" vertex="1" parent="2KBXHVVGUYB0KBsjJUZ5-1">
          <mxGeometry x="100" y="80" width="30" height="60" as="geometry" />
        </mxCell>
        <mxCell id="2KBXHVVGUYB0KBsjJUZ5-3" value="" style="endArrow=none;dashed=1;html=1;rounded=0;fontSize=12;startSize=8;endSize=8;curved=1;" edge="1" parent="2KBXHVVGUYB0KBsjJUZ5-1" source="2KBXHVVGUYB0KBsjJUZ5-27">
          <mxGeometry width="50" height="50" relative="1" as="geometry">
            <mxPoint x="114" y="720" as="sourcePoint" />
            <mxPoint x="114.5" y="170" as="targetPoint" />
          </mxGeometry>
        </mxCell>
        <mxCell id="2KBXHVVGUYB0KBsjJUZ5-4" value="잔여 좌석 조회" style="text;html=1;align=center;verticalAlign=middle;whiteSpace=wrap;rounded=0;fontSize=16;" vertex="1" parent="2KBXHVVGUYB0KBsjJUZ5-1">
          <mxGeometry x="50" y="30" width="170" height="30" as="geometry" />
        </mxCell>
        <mxCell id="2KBXHVVGUYB0KBsjJUZ5-5" value="좌석 관리 서버" style="rounded=1;whiteSpace=wrap;html=1;" vertex="1" parent="2KBXHVVGUYB0KBsjJUZ5-1">
          <mxGeometry x="320" y="80" width="120" height="60" as="geometry" />
        </mxCell>
        <mxCell id="2KBXHVVGUYB0KBsjJUZ5-6" value="좌석 관리&lt;div&gt;DB&lt;/div&gt;" style="shape=cylinder3;whiteSpace=wrap;html=1;boundedLbl=1;backgroundOutline=1;size=15;" vertex="1" parent="2KBXHVVGUYB0KBsjJUZ5-1">
          <mxGeometry x="620" y="70" width="100" height="80" as="geometry" />
        </mxCell>
        <mxCell id="2KBXHVVGUYB0KBsjJUZ5-7" value="" style="endArrow=none;dashed=1;html=1;dashPattern=1 3;strokeWidth=2;rounded=0;fontSize=12;startSize=8;endSize=8;curved=1;entryX=0.5;entryY=1;entryDx=0;entryDy=0;" edge="1" parent="2KBXHVVGUYB0KBsjJUZ5-1" target="2KBXHVVGUYB0KBsjJUZ5-5">
          <mxGeometry width="50" height="50" relative="1" as="geometry">
            <mxPoint x="380" y="390" as="sourcePoint" />
            <mxPoint x="360" y="330" as="targetPoint" />
          </mxGeometry>
        </mxCell>
        <mxCell id="2KBXHVVGUYB0KBsjJUZ5-8" value="" style="endArrow=none;dashed=1;html=1;rounded=0;fontSize=12;startSize=8;endSize=8;curved=1;entryX=0.5;entryY=1;entryDx=0;entryDy=0;entryPerimeter=0;" edge="1" parent="2KBXHVVGUYB0KBsjJUZ5-1" source="2KBXHVVGUYB0KBsjJUZ5-13" target="2KBXHVVGUYB0KBsjJUZ5-6">
          <mxGeometry width="50" height="50" relative="1" as="geometry">
            <mxPoint x="670" y="730" as="sourcePoint" />
            <mxPoint x="400" y="410" as="targetPoint" />
          </mxGeometry>
        </mxCell>
        <mxCell id="2KBXHVVGUYB0KBsjJUZ5-9" value="" style="rounded=0;whiteSpace=wrap;html=1;" vertex="1" parent="2KBXHVVGUYB0KBsjJUZ5-1">
          <mxGeometry x="367.5" y="200" width="25" height="170" as="geometry" />
        </mxCell>
        <mxCell id="2KBXHVVGUYB0KBsjJUZ5-10" value="잔여 좌석 조회 서비스 버튼 클릭" style="html=1;verticalAlign=bottom;endArrow=block;curved=0;rounded=0;fontSize=12;startSize=8;endSize=8;" edge="1" parent="2KBXHVVGUYB0KBsjJUZ5-1">
          <mxGeometry width="80" relative="1" as="geometry">
            <mxPoint x="120" y="220" as="sourcePoint" />
            <mxPoint x="370" y="220" as="targetPoint" />
          </mxGeometry>
        </mxCell>
        <mxCell id="2KBXHVVGUYB0KBsjJUZ5-12" value="" style="endArrow=none;dashed=1;html=1;rounded=0;fontSize=12;startSize=8;endSize=8;curved=1;entryX=0.5;entryY=1;entryDx=0;entryDy=0;entryPerimeter=0;" edge="1" parent="2KBXHVVGUYB0KBsjJUZ5-1" target="2KBXHVVGUYB0KBsjJUZ5-13">
          <mxGeometry width="50" height="50" relative="1" as="geometry">
            <mxPoint x="668.5" y="380" as="sourcePoint" />
            <mxPoint x="670" y="150" as="targetPoint" />
          </mxGeometry>
        </mxCell>
        <mxCell id="2KBXHVVGUYB0KBsjJUZ5-13" value="" style="rounded=0;whiteSpace=wrap;html=1;" vertex="1" parent="2KBXHVVGUYB0KBsjJUZ5-1">
          <mxGeometry x="656" y="320" width="25" height="30" as="geometry" />
        </mxCell>
        <mxCell id="2KBXHVVGUYB0KBsjJUZ5-14" value="선택된 스터디룸의 좌석 현황 및 배치표 불러오기" style="html=1;verticalAlign=bottom;endArrow=block;curved=0;rounded=0;fontSize=12;startSize=8;endSize=8;entryX=0;entryY=0.5;entryDx=0;entryDy=0;" edge="1" parent="2KBXHVVGUYB0KBsjJUZ5-1">
          <mxGeometry x="-0.0006" width="80" relative="1" as="geometry">
            <mxPoint x="392.5" y="330" as="sourcePoint" />
            <mxPoint x="656" y="331" as="targetPoint" />
            <mxPoint as="offset" />
          </mxGeometry>
        </mxCell>
        <mxCell id="2KBXHVVGUYB0KBsjJUZ5-20" value="스터디룸 선택 드롭다운 메뉴바 제공" style="html=1;verticalAlign=bottom;endArrow=block;curved=0;rounded=0;fontSize=12;startSize=8;endSize=8;exitX=-0.033;exitY=0.848;exitDx=0;exitDy=0;exitPerimeter=0;" edge="1" parent="2KBXHVVGUYB0KBsjJUZ5-1">
          <mxGeometry width="80" relative="1" as="geometry">
            <mxPoint x="367.5" y="270" as="sourcePoint" />
            <mxPoint x="130" y="270" as="targetPoint" />
          </mxGeometry>
        </mxCell>
        <mxCell id="2KBXHVVGUYB0KBsjJUZ5-21" value="" style="endArrow=none;dashed=1;html=1;rounded=0;fontSize=12;startSize=8;endSize=8;curved=1;entryX=0.5;entryY=1;entryDx=0;entryDy=0;" edge="1" parent="2KBXHVVGUYB0KBsjJUZ5-1" target="2KBXHVVGUYB0KBsjJUZ5-27">
          <mxGeometry width="50" height="50" relative="1" as="geometry">
            <mxPoint x="115" y="410" as="sourcePoint" />
            <mxPoint x="115" y="325" as="targetPoint" />
          </mxGeometry>
        </mxCell>
        <mxCell id="2KBXHVVGUYB0KBsjJUZ5-25" value="스터디룸 선택" style="html=1;verticalAlign=bottom;endArrow=block;curved=0;rounded=0;fontSize=12;startSize=8;endSize=8;" edge="1" parent="2KBXHVVGUYB0KBsjJUZ5-1">
          <mxGeometry width="80" relative="1" as="geometry">
            <mxPoint x="117.5" y="306" as="sourcePoint" />
            <mxPoint x="367.5" y="306" as="targetPoint" />
          </mxGeometry>
        </mxCell>
        <mxCell id="2KBXHVVGUYB0KBsjJUZ5-26" value="" style="endArrow=none;dashed=1;html=1;rounded=0;fontSize=12;startSize=8;endSize=8;curved=1;" edge="1" parent="2KBXHVVGUYB0KBsjJUZ5-1" target="2KBXHVVGUYB0KBsjJUZ5-27">
          <mxGeometry width="50" height="50" relative="1" as="geometry">
            <mxPoint x="115" y="295" as="sourcePoint" />
            <mxPoint x="114.5" y="170" as="targetPoint" />
          </mxGeometry>
        </mxCell>
        <mxCell id="2KBXHVVGUYB0KBsjJUZ5-27" value="" style="rounded=0;whiteSpace=wrap;html=1;" vertex="1" parent="2KBXHVVGUYB0KBsjJUZ5-1">
          <mxGeometry x="100" y="200" width="30" height="170" as="geometry" />
        </mxCell>
        <mxCell id="tzjLOuYyqHVfePyshGat-2" value="선택한 스터디룸 좌석표 제공" style="html=1;verticalAlign=bottom;endArrow=block;curved=0;rounded=0;fontSize=12;startSize=8;endSize=8;exitX=-0.033;exitY=0.848;exitDx=0;exitDy=0;exitPerimeter=0;" edge="1" parent="2KBXHVVGUYB0KBsjJUZ5-1">
          <mxGeometry width="80" relative="1" as="geometry">
            <mxPoint x="367.5" y="350" as="sourcePoint" />
            <mxPoint x="130" y="350" as="targetPoint" />
          </mxGeometry>
        </mxCell>
      </root>
    </mxGraphModel>
  </diagram>
  <diagram name="좌석 배정 신청" id="WIGZHKo7qlWPfyPU66E1">
    <mxGraphModel dx="849" dy="1054" grid="1" gridSize="10" guides="1" tooltips="1" connect="1" arrows="1" fold="1" page="1" pageScale="1" pageWidth="850" pageHeight="1100" math="0" shadow="0">
      <root>
        <mxCell id="PpwfPjqyfCliycpSLVlc-0" />
        <mxCell id="PpwfPjqyfCliycpSLVlc-1" parent="PpwfPjqyfCliycpSLVlc-0" />
        <mxCell id="4zJOaKiFR_U7AnjllImi-12" value="" style="endArrow=none;dashed=1;html=1;rounded=0;fontSize=12;startSize=8;endSize=8;curved=1;entryX=0.5;entryY=1;entryDx=0;entryDy=0;entryPerimeter=0;" edge="1" parent="PpwfPjqyfCliycpSLVlc-1">
          <mxGeometry width="50" height="50" relative="1" as="geometry">
            <mxPoint x="379" y="760" as="sourcePoint" />
            <mxPoint x="379.25" y="530" as="targetPoint" />
          </mxGeometry>
        </mxCell>
        <mxCell id="PpwfPjqyfCliycpSLVlc-2" value="회원" style="shape=umlActor;verticalLabelPosition=bottom;verticalAlign=top;html=1;outlineConnect=0;" vertex="1" parent="PpwfPjqyfCliycpSLVlc-1">
          <mxGeometry x="100" y="80" width="30" height="60" as="geometry" />
        </mxCell>
        <mxCell id="PpwfPjqyfCliycpSLVlc-3" value="" style="endArrow=none;dashed=1;html=1;rounded=0;fontSize=12;startSize=8;endSize=8;curved=1;" edge="1" parent="PpwfPjqyfCliycpSLVlc-1" source="PpwfPjqyfCliycpSLVlc-18">
          <mxGeometry width="50" height="50" relative="1" as="geometry">
            <mxPoint x="114" y="720" as="sourcePoint" />
            <mxPoint x="114.5" y="170" as="targetPoint" />
          </mxGeometry>
        </mxCell>
        <mxCell id="PpwfPjqyfCliycpSLVlc-4" value="좌석 배정 신청" style="text;html=1;align=center;verticalAlign=middle;whiteSpace=wrap;rounded=0;fontSize=16;" vertex="1" parent="PpwfPjqyfCliycpSLVlc-1">
          <mxGeometry x="50" y="30" width="170" height="30" as="geometry" />
        </mxCell>
        <mxCell id="PpwfPjqyfCliycpSLVlc-5" value="좌석 관리 서버" style="rounded=1;whiteSpace=wrap;html=1;" vertex="1" parent="PpwfPjqyfCliycpSLVlc-1">
          <mxGeometry x="320" y="80" width="120" height="60" as="geometry" />
        </mxCell>
        <mxCell id="PpwfPjqyfCliycpSLVlc-6" value="좌석 관리&lt;div&gt;DB&lt;/div&gt;" style="shape=cylinder3;whiteSpace=wrap;html=1;boundedLbl=1;backgroundOutline=1;size=15;" vertex="1" parent="PpwfPjqyfCliycpSLVlc-1">
          <mxGeometry x="530" y="70" width="100" height="80" as="geometry" />
        </mxCell>
        <mxCell id="PpwfPjqyfCliycpSLVlc-7" value="" style="endArrow=none;dashed=1;html=1;dashPattern=1 3;strokeWidth=2;rounded=0;fontSize=12;startSize=8;endSize=8;curved=1;entryX=0.5;entryY=1;entryDx=0;entryDy=0;" edge="1" parent="PpwfPjqyfCliycpSLVlc-1" target="PpwfPjqyfCliycpSLVlc-5">
          <mxGeometry width="50" height="50" relative="1" as="geometry">
            <mxPoint x="380" y="390" as="sourcePoint" />
            <mxPoint x="360" y="330" as="targetPoint" />
          </mxGeometry>
        </mxCell>
        <mxCell id="PpwfPjqyfCliycpSLVlc-8" value="" style="endArrow=none;dashed=1;html=1;rounded=0;fontSize=12;startSize=8;endSize=8;curved=1;entryX=0.5;entryY=1;entryDx=0;entryDy=0;entryPerimeter=0;" edge="1" parent="PpwfPjqyfCliycpSLVlc-1" source="4zJOaKiFR_U7AnjllImi-1" target="PpwfPjqyfCliycpSLVlc-6">
          <mxGeometry width="50" height="50" relative="1" as="geometry">
            <mxPoint x="580" y="730" as="sourcePoint" />
            <mxPoint x="310" y="410" as="targetPoint" />
          </mxGeometry>
        </mxCell>
        <mxCell id="PpwfPjqyfCliycpSLVlc-9" value="" style="rounded=0;whiteSpace=wrap;html=1;" vertex="1" parent="PpwfPjqyfCliycpSLVlc-1">
          <mxGeometry x="367.5" y="200" width="25" height="440" as="geometry" />
        </mxCell>
        <mxCell id="PpwfPjqyfCliycpSLVlc-10" value="좌석 배치표에서 좌석 클릭" style="html=1;verticalAlign=bottom;endArrow=block;curved=0;rounded=0;fontSize=12;startSize=8;endSize=8;" edge="1" parent="PpwfPjqyfCliycpSLVlc-1">
          <mxGeometry width="80" relative="1" as="geometry">
            <mxPoint x="120" y="220" as="sourcePoint" />
            <mxPoint x="370" y="220" as="targetPoint" />
          </mxGeometry>
        </mxCell>
        <mxCell id="PpwfPjqyfCliycpSLVlc-11" value="" style="endArrow=none;dashed=1;html=1;rounded=0;fontSize=12;startSize=8;endSize=8;curved=1;entryX=0.5;entryY=1;entryDx=0;entryDy=0;entryPerimeter=0;" edge="1" parent="PpwfPjqyfCliycpSLVlc-1" target="PpwfPjqyfCliycpSLVlc-12" source="4zJOaKiFR_U7AnjllImi-18">
          <mxGeometry width="50" height="50" relative="1" as="geometry">
            <mxPoint x="579" y="680" as="sourcePoint" />
            <mxPoint x="580" y="150" as="targetPoint" />
          </mxGeometry>
        </mxCell>
        <mxCell id="PpwfPjqyfCliycpSLVlc-12" value="" style="rounded=0;whiteSpace=wrap;html=1;" vertex="1" parent="PpwfPjqyfCliycpSLVlc-1">
          <mxGeometry x="566" y="310" width="25" height="60" as="geometry" />
        </mxCell>
        <mxCell id="PpwfPjqyfCliycpSLVlc-13" value="해당 좌석이 대여가 가능한지 확인" style="html=1;verticalAlign=bottom;endArrow=block;curved=0;rounded=0;fontSize=12;startSize=8;endSize=8;" edge="1" parent="PpwfPjqyfCliycpSLVlc-1">
          <mxGeometry x="0.0019" width="80" relative="1" as="geometry">
            <mxPoint x="393.5" y="330" as="sourcePoint" />
            <mxPoint x="560" y="330" as="targetPoint" />
            <mxPoint as="offset" />
          </mxGeometry>
        </mxCell>
        <mxCell id="PpwfPjqyfCliycpSLVlc-14" value="해당 좌석에 대한 정보 제공 및 대여 여부 질문" style="html=1;verticalAlign=bottom;endArrow=block;curved=0;rounded=0;fontSize=12;startSize=8;endSize=8;exitX=-0.033;exitY=0.848;exitDx=0;exitDy=0;exitPerimeter=0;" edge="1" parent="PpwfPjqyfCliycpSLVlc-1">
          <mxGeometry width="80" relative="1" as="geometry">
            <mxPoint x="367.5" y="270" as="sourcePoint" />
            <mxPoint x="130" y="270" as="targetPoint" />
          </mxGeometry>
        </mxCell>
        <mxCell id="PpwfPjqyfCliycpSLVlc-15" value="" style="endArrow=none;dashed=1;html=1;rounded=0;fontSize=12;startSize=8;endSize=8;curved=1;entryX=0.5;entryY=1;entryDx=0;entryDy=0;" edge="1" parent="PpwfPjqyfCliycpSLVlc-1" target="PpwfPjqyfCliycpSLVlc-18">
          <mxGeometry width="50" height="50" relative="1" as="geometry">
            <mxPoint x="115" y="730" as="sourcePoint" />
            <mxPoint x="115" y="325" as="targetPoint" />
          </mxGeometry>
        </mxCell>
        <mxCell id="PpwfPjqyfCliycpSLVlc-16" value="대여하기 클릭" style="html=1;verticalAlign=bottom;endArrow=block;curved=0;rounded=0;fontSize=12;startSize=8;endSize=8;" edge="1" parent="PpwfPjqyfCliycpSLVlc-1">
          <mxGeometry width="80" relative="1" as="geometry">
            <mxPoint x="117.5" y="306" as="sourcePoint" />
            <mxPoint x="367.5" y="306" as="targetPoint" />
          </mxGeometry>
        </mxCell>
        <mxCell id="PpwfPjqyfCliycpSLVlc-17" value="" style="endArrow=none;dashed=1;html=1;rounded=0;fontSize=12;startSize=8;endSize=8;curved=1;" edge="1" parent="PpwfPjqyfCliycpSLVlc-1" target="PpwfPjqyfCliycpSLVlc-18">
          <mxGeometry width="50" height="50" relative="1" as="geometry">
            <mxPoint x="115" y="295" as="sourcePoint" />
            <mxPoint x="114.5" y="170" as="targetPoint" />
          </mxGeometry>
        </mxCell>
        <mxCell id="PpwfPjqyfCliycpSLVlc-18" value="" style="rounded=0;whiteSpace=wrap;html=1;" vertex="1" parent="PpwfPjqyfCliycpSLVlc-1">
          <mxGeometry x="100" y="200" width="30" height="440" as="geometry" />
        </mxCell>
        <mxCell id="PpwfPjqyfCliycpSLVlc-19" value="이미 사용 중인 좌석일 경우, 대여 불가 공지" style="html=1;verticalAlign=bottom;endArrow=block;curved=0;rounded=0;fontSize=12;startSize=8;endSize=8;exitX=-0.06;exitY=0.384;exitDx=0;exitDy=0;exitPerimeter=0;entryX=1.067;entryY=0.389;entryDx=0;entryDy=0;entryPerimeter=0;" edge="1" parent="PpwfPjqyfCliycpSLVlc-1" source="PpwfPjqyfCliycpSLVlc-9" target="PpwfPjqyfCliycpSLVlc-18">
          <mxGeometry x="-0.0212" y="1" width="80" relative="1" as="geometry">
            <mxPoint x="367.5" y="350" as="sourcePoint" />
            <mxPoint x="140" y="346" as="targetPoint" />
            <mxPoint as="offset" />
          </mxGeometry>
        </mxCell>
        <mxCell id="4zJOaKiFR_U7AnjllImi-0" value="해당 좌석에 대한 정보 조회" style="html=1;verticalAlign=bottom;endArrow=block;curved=0;rounded=0;fontSize=12;startSize=8;endSize=8;" edge="1" parent="PpwfPjqyfCliycpSLVlc-1">
          <mxGeometry x="0.0001" width="80" relative="1" as="geometry">
            <mxPoint x="392.5" y="240" as="sourcePoint" />
            <mxPoint x="560" y="241" as="targetPoint" />
            <mxPoint as="offset" />
          </mxGeometry>
        </mxCell>
        <mxCell id="4zJOaKiFR_U7AnjllImi-2" value="" style="endArrow=none;dashed=1;html=1;rounded=0;fontSize=12;startSize=8;endSize=8;curved=1;entryX=0.5;entryY=1;entryDx=0;entryDy=0;entryPerimeter=0;" edge="1" parent="PpwfPjqyfCliycpSLVlc-1" source="PpwfPjqyfCliycpSLVlc-12" target="4zJOaKiFR_U7AnjllImi-1">
          <mxGeometry width="50" height="50" relative="1" as="geometry">
            <mxPoint x="579" y="320" as="sourcePoint" />
            <mxPoint x="580" y="150" as="targetPoint" />
          </mxGeometry>
        </mxCell>
        <mxCell id="4zJOaKiFR_U7AnjllImi-1" value="" style="rounded=0;whiteSpace=wrap;html=1;" vertex="1" parent="PpwfPjqyfCliycpSLVlc-1">
          <mxGeometry x="566" y="230" width="25" height="30" as="geometry" />
        </mxCell>
        <mxCell id="4zJOaKiFR_U7AnjllImi-3" value="사용자 관리&lt;div&gt;DB&lt;/div&gt;" style="shape=cylinder3;whiteSpace=wrap;html=1;boundedLbl=1;backgroundOutline=1;size=15;" vertex="1" parent="PpwfPjqyfCliycpSLVlc-1">
          <mxGeometry x="690" y="70" width="100" height="80" as="geometry" />
        </mxCell>
        <mxCell id="4zJOaKiFR_U7AnjllImi-4" value="" style="endArrow=none;dashed=1;html=1;rounded=0;fontSize=12;startSize=8;endSize=8;curved=1;entryX=0.5;entryY=1;entryDx=0;entryDy=0;entryPerimeter=0;" edge="1" parent="PpwfPjqyfCliycpSLVlc-1" target="4zJOaKiFR_U7AnjllImi-3">
          <mxGeometry width="50" height="50" relative="1" as="geometry">
            <mxPoint x="740" y="730" as="sourcePoint" />
            <mxPoint x="470" y="410" as="targetPoint" />
          </mxGeometry>
        </mxCell>
        <mxCell id="4zJOaKiFR_U7AnjllImi-5" value="" style="endArrow=none;dashed=1;html=1;rounded=0;fontSize=12;startSize=8;endSize=8;curved=1;entryX=0.5;entryY=1;entryDx=0;entryDy=0;entryPerimeter=0;" edge="1" parent="PpwfPjqyfCliycpSLVlc-1" target="4zJOaKiFR_U7AnjllImi-6">
          <mxGeometry width="50" height="50" relative="1" as="geometry">
            <mxPoint x="738.5" y="380" as="sourcePoint" />
            <mxPoint x="740" y="150" as="targetPoint" />
          </mxGeometry>
        </mxCell>
        <mxCell id="4zJOaKiFR_U7AnjllImi-6" value="" style="rounded=0;whiteSpace=wrap;html=1;" vertex="1" parent="PpwfPjqyfCliycpSLVlc-1">
          <mxGeometry x="727.5" y="380" width="25" height="30" as="geometry" />
        </mxCell>
        <mxCell id="4zJOaKiFR_U7AnjllImi-9" value="회원의 학부 정보 조회 &amp;nbsp;" style="html=1;verticalAlign=bottom;endArrow=block;curved=0;rounded=0;fontSize=12;startSize=8;endSize=8;entryX=0;entryY=0.5;entryDx=0;entryDy=0;" edge="1" parent="PpwfPjqyfCliycpSLVlc-1" target="4zJOaKiFR_U7AnjllImi-6">
          <mxGeometry x="0.0019" width="80" relative="1" as="geometry">
            <mxPoint x="392.5" y="394.5" as="sourcePoint" />
            <mxPoint x="564" y="395.5" as="targetPoint" />
            <mxPoint as="offset" />
          </mxGeometry>
        </mxCell>
        <mxCell id="4zJOaKiFR_U7AnjllImi-10" value="해당 좌석의 가능 학부 정보 조회" style="html=1;verticalAlign=bottom;endArrow=block;curved=0;rounded=0;fontSize=12;startSize=8;endSize=8;entryX=-0.055;entryY=0.363;entryDx=0;entryDy=0;entryPerimeter=0;" edge="1" parent="PpwfPjqyfCliycpSLVlc-1">
          <mxGeometry x="0.0019" width="80" relative="1" as="geometry">
            <mxPoint x="394.5" y="360" as="sourcePoint" />
            <mxPoint x="566" y="361" as="targetPoint" />
            <mxPoint as="offset" />
          </mxGeometry>
        </mxCell>
        <mxCell id="4zJOaKiFR_U7AnjllImi-13" value="" style="html=1;points=[[0,0,0,0,5],[0,1,0,0,-5],[1,0,0,0,5],[1,1,0,0,-5]];perimeter=orthogonalPerimeter;outlineConnect=0;targetShapes=umlLifeline;portConstraint=eastwest;newEdgeStyle={&quot;curved&quot;:0,&quot;rounded&quot;:0};" vertex="1" parent="PpwfPjqyfCliycpSLVlc-1">
          <mxGeometry x="392.5" y="450" width="10" height="40" as="geometry" />
        </mxCell>
        <mxCell id="4zJOaKiFR_U7AnjllImi-14" value="회원 학부 정보와 좌석의 가능 학부 정보가 일치하는지 확인" style="html=1;align=left;spacingLeft=2;endArrow=block;rounded=0;edgeStyle=orthogonalEdgeStyle;curved=0;rounded=0;fontSize=12;startSize=8;endSize=8;" edge="1" target="4zJOaKiFR_U7AnjllImi-13" parent="PpwfPjqyfCliycpSLVlc-1">
          <mxGeometry x="0.0118" relative="1" as="geometry">
            <mxPoint x="395" y="437" as="sourcePoint" />
            <Array as="points">
              <mxPoint x="425" y="437" />
              <mxPoint x="425" y="470" />
            </Array>
            <mxPoint as="offset" />
          </mxGeometry>
        </mxCell>
        <mxCell id="4zJOaKiFR_U7AnjllImi-16" value="일치하지 않을 경우, 대여 불가 공지&lt;div&gt;일치할 경우, 좌석 대여 성공 공지&lt;/div&gt;" style="html=1;verticalAlign=bottom;endArrow=block;curved=0;rounded=0;fontSize=12;startSize=8;endSize=8;exitX=-0.1;exitY=0.926;exitDx=0;exitDy=0;exitPerimeter=0;entryX=1.056;entryY=0.928;entryDx=0;entryDy=0;entryPerimeter=0;" edge="1" parent="PpwfPjqyfCliycpSLVlc-1" source="PpwfPjqyfCliycpSLVlc-9" target="PpwfPjqyfCliycpSLVlc-18">
          <mxGeometry x="-0.0212" y="1" width="80" relative="1" as="geometry">
            <mxPoint x="370" y="530" as="sourcePoint" />
            <mxPoint x="134" y="550" as="targetPoint" />
            <mxPoint as="offset" />
          </mxGeometry>
        </mxCell>
        <mxCell id="4zJOaKiFR_U7AnjllImi-19" value="" style="endArrow=none;dashed=1;html=1;rounded=0;fontSize=12;startSize=8;endSize=8;curved=1;entryX=0.5;entryY=1;entryDx=0;entryDy=0;entryPerimeter=0;" edge="1" parent="PpwfPjqyfCliycpSLVlc-1" target="4zJOaKiFR_U7AnjllImi-18">
          <mxGeometry width="50" height="50" relative="1" as="geometry">
            <mxPoint x="579" y="750" as="sourcePoint" />
            <mxPoint x="579" y="370" as="targetPoint" />
          </mxGeometry>
        </mxCell>
        <mxCell id="4zJOaKiFR_U7AnjllImi-18" value="" style="rounded=0;whiteSpace=wrap;html=1;" vertex="1" parent="PpwfPjqyfCliycpSLVlc-1">
          <mxGeometry x="566" y="520" width="25" height="30" as="geometry" />
        </mxCell>
        <mxCell id="4zJOaKiFR_U7AnjllImi-20" value="일치할 경우,&lt;div&gt;해당 좌석 상태 대여 중으로 업데이트&lt;/div&gt;" style="html=1;verticalAlign=bottom;endArrow=block;curved=0;rounded=0;fontSize=12;startSize=8;endSize=8;entryX=-0.055;entryY=0.363;entryDx=0;entryDy=0;entryPerimeter=0;" edge="1" parent="PpwfPjqyfCliycpSLVlc-1">
          <mxGeometry x="0.0019" width="80" relative="1" as="geometry">
            <mxPoint x="394.5" y="534.5" as="sourcePoint" />
            <mxPoint x="566" y="535.5" as="targetPoint" />
            <mxPoint as="offset" />
          </mxGeometry>
        </mxCell>
        <mxCell id="zuwIt1YXjz1c-ViQoDfs-0" value="일치할 경우,&lt;div&gt;해당 회원의 상태를 이용 중으로 업데이트&lt;/div&gt;" style="html=1;verticalAlign=bottom;endArrow=block;curved=0;rounded=0;fontSize=12;startSize=8;endSize=8;entryX=0;entryY=0.75;entryDx=0;entryDy=0;" edge="1" parent="PpwfPjqyfCliycpSLVlc-1" target="zuwIt1YXjz1c-ViQoDfs-1">
          <mxGeometry x="0.0019" width="80" relative="1" as="geometry">
            <mxPoint x="394.5" y="590" as="sourcePoint" />
            <mxPoint x="690" y="590" as="targetPoint" />
            <mxPoint as="offset" />
          </mxGeometry>
        </mxCell>
        <mxCell id="zuwIt1YXjz1c-ViQoDfs-1" value="" style="rounded=0;whiteSpace=wrap;html=1;" vertex="1" parent="PpwfPjqyfCliycpSLVlc-1">
          <mxGeometry x="730" y="570" width="25" height="30" as="geometry" />
        </mxCell>
      </root>
    </mxGraphModel>
  </diagram>
  <diagram name="배정 좌석 확인" id="Ps8qZK3bL49_wSJUb_Qv">
    <mxGraphModel dx="699" dy="868" grid="1" gridSize="10" guides="1" tooltips="1" connect="1" arrows="1" fold="1" page="1" pageScale="1" pageWidth="850" pageHeight="1100" math="0" shadow="0">
      <root>
        <mxCell id="nsABx-BomZK_lhBhXkGz-0" />
        <mxCell id="nsABx-BomZK_lhBhXkGz-1" parent="nsABx-BomZK_lhBhXkGz-0" />
        <mxCell id="nsABx-BomZK_lhBhXkGz-3" value="회원" style="shape=umlActor;verticalLabelPosition=bottom;verticalAlign=top;html=1;outlineConnect=0;" vertex="1" parent="nsABx-BomZK_lhBhXkGz-1">
          <mxGeometry x="100" y="80" width="30" height="60" as="geometry" />
        </mxCell>
        <mxCell id="nsABx-BomZK_lhBhXkGz-4" value="" style="endArrow=none;dashed=1;html=1;rounded=0;fontSize=12;startSize=8;endSize=8;curved=1;" edge="1" parent="nsABx-BomZK_lhBhXkGz-1" source="nsABx-BomZK_lhBhXkGz-19">
          <mxGeometry width="50" height="50" relative="1" as="geometry">
            <mxPoint x="114" y="720" as="sourcePoint" />
            <mxPoint x="114.5" y="170" as="targetPoint" />
          </mxGeometry>
        </mxCell>
        <mxCell id="nsABx-BomZK_lhBhXkGz-5" value="배정 좌석 확인" style="text;html=1;align=center;verticalAlign=middle;whiteSpace=wrap;rounded=0;fontSize=16;" vertex="1" parent="nsABx-BomZK_lhBhXkGz-1">
          <mxGeometry x="50" y="30" width="170" height="30" as="geometry" />
        </mxCell>
        <mxCell id="nsABx-BomZK_lhBhXkGz-6" value="좌석 관리 서버" style="rounded=1;whiteSpace=wrap;html=1;" vertex="1" parent="nsABx-BomZK_lhBhXkGz-1">
          <mxGeometry x="320" y="80" width="120" height="60" as="geometry" />
        </mxCell>
        <mxCell id="nsABx-BomZK_lhBhXkGz-7" value="좌석 관리&lt;div&gt;DB&lt;/div&gt;" style="shape=cylinder3;whiteSpace=wrap;html=1;boundedLbl=1;backgroundOutline=1;size=15;" vertex="1" parent="nsABx-BomZK_lhBhXkGz-1">
          <mxGeometry x="530" y="70" width="100" height="80" as="geometry" />
        </mxCell>
        <mxCell id="nsABx-BomZK_lhBhXkGz-8" value="" style="endArrow=none;dashed=1;html=1;dashPattern=1 3;strokeWidth=2;rounded=0;fontSize=12;startSize=8;endSize=8;curved=1;entryX=0.5;entryY=1;entryDx=0;entryDy=0;" edge="1" parent="nsABx-BomZK_lhBhXkGz-1" target="nsABx-BomZK_lhBhXkGz-6">
          <mxGeometry width="50" height="50" relative="1" as="geometry">
            <mxPoint x="380" y="390" as="sourcePoint" />
            <mxPoint x="360" y="330" as="targetPoint" />
          </mxGeometry>
        </mxCell>
        <mxCell id="nsABx-BomZK_lhBhXkGz-9" value="" style="endArrow=none;dashed=1;html=1;rounded=0;fontSize=12;startSize=8;endSize=8;curved=1;entryX=0.5;entryY=1;entryDx=0;entryDy=0;entryPerimeter=0;" edge="1" parent="nsABx-BomZK_lhBhXkGz-1" source="nsABx-BomZK_lhBhXkGz-13" target="nsABx-BomZK_lhBhXkGz-7">
          <mxGeometry width="50" height="50" relative="1" as="geometry">
            <mxPoint x="578.7368421052631" y="230" as="sourcePoint" />
            <mxPoint x="310" y="410" as="targetPoint" />
          </mxGeometry>
        </mxCell>
        <mxCell id="nsABx-BomZK_lhBhXkGz-10" value="" style="rounded=0;whiteSpace=wrap;html=1;" vertex="1" parent="nsABx-BomZK_lhBhXkGz-1">
          <mxGeometry x="367.5" y="200" width="25" height="150" as="geometry" />
        </mxCell>
        <mxCell id="nsABx-BomZK_lhBhXkGz-11" value="나의 배정 좌석 확인 서비스 클릭" style="html=1;verticalAlign=bottom;endArrow=block;curved=0;rounded=0;fontSize=12;startSize=8;endSize=8;" edge="1" parent="nsABx-BomZK_lhBhXkGz-1">
          <mxGeometry width="80" relative="1" as="geometry">
            <mxPoint x="120" y="220" as="sourcePoint" />
            <mxPoint x="370" y="220" as="targetPoint" />
          </mxGeometry>
        </mxCell>
        <mxCell id="nsABx-BomZK_lhBhXkGz-12" value="" style="endArrow=none;dashed=1;html=1;rounded=0;fontSize=12;startSize=8;endSize=8;curved=1;entryX=0.5;entryY=1;entryDx=0;entryDy=0;entryPerimeter=0;" edge="1" parent="nsABx-BomZK_lhBhXkGz-1" target="nsABx-BomZK_lhBhXkGz-13">
          <mxGeometry width="50" height="50" relative="1" as="geometry">
            <mxPoint x="580" y="360" as="sourcePoint" />
            <mxPoint x="580" y="150" as="targetPoint" />
          </mxGeometry>
        </mxCell>
        <mxCell id="nsABx-BomZK_lhBhXkGz-13" value="" style="rounded=0;whiteSpace=wrap;html=1;" vertex="1" parent="nsABx-BomZK_lhBhXkGz-1">
          <mxGeometry x="567.5" y="287" width="25" height="30" as="geometry" />
        </mxCell>
        <mxCell id="nsABx-BomZK_lhBhXkGz-14" value="해당 좌석에 대한 정보 조회" style="html=1;verticalAlign=bottom;endArrow=block;curved=0;rounded=0;fontSize=12;startSize=8;endSize=8;entryX=0;entryY=0.5;entryDx=0;entryDy=0;" edge="1" parent="nsABx-BomZK_lhBhXkGz-1">
          <mxGeometry x="0.0019" width="80" relative="1" as="geometry">
            <mxPoint x="392.5" y="301.5" as="sourcePoint" />
            <mxPoint x="567.5" y="302" as="targetPoint" />
            <mxPoint as="offset" />
          </mxGeometry>
        </mxCell>
        <mxCell id="nsABx-BomZK_lhBhXkGz-15" value="사용자와 현재 이용 중인 좌석에 대한 정보 제공" style="html=1;verticalAlign=bottom;endArrow=block;curved=0;rounded=0;fontSize=12;startSize=8;endSize=8;exitX=-0.033;exitY=0.848;exitDx=0;exitDy=0;exitPerimeter=0;" edge="1" parent="nsABx-BomZK_lhBhXkGz-1">
          <mxGeometry width="80" relative="1" as="geometry">
            <mxPoint x="367.5" y="330" as="sourcePoint" />
            <mxPoint x="130" y="330" as="targetPoint" />
          </mxGeometry>
        </mxCell>
        <mxCell id="nsABx-BomZK_lhBhXkGz-16" value="" style="endArrow=none;dashed=1;html=1;rounded=0;fontSize=12;startSize=8;endSize=8;curved=1;entryX=0.5;entryY=1;entryDx=0;entryDy=0;" edge="1" parent="nsABx-BomZK_lhBhXkGz-1" target="nsABx-BomZK_lhBhXkGz-19">
          <mxGeometry width="50" height="50" relative="1" as="geometry">
            <mxPoint x="115" y="390" as="sourcePoint" />
            <mxPoint x="115" y="325" as="targetPoint" />
          </mxGeometry>
        </mxCell>
        <mxCell id="nsABx-BomZK_lhBhXkGz-18" value="" style="endArrow=none;dashed=1;html=1;rounded=0;fontSize=12;startSize=8;endSize=8;curved=1;" edge="1" parent="nsABx-BomZK_lhBhXkGz-1" target="nsABx-BomZK_lhBhXkGz-19">
          <mxGeometry width="50" height="50" relative="1" as="geometry">
            <mxPoint x="115" y="295" as="sourcePoint" />
            <mxPoint x="114.5" y="170" as="targetPoint" />
          </mxGeometry>
        </mxCell>
        <mxCell id="nsABx-BomZK_lhBhXkGz-19" value="" style="rounded=0;whiteSpace=wrap;html=1;" vertex="1" parent="nsABx-BomZK_lhBhXkGz-1">
          <mxGeometry x="100" y="200" width="30" height="150" as="geometry" />
        </mxCell>
        <mxCell id="nsABx-BomZK_lhBhXkGz-21" value="해당 회원에 대한 정보 조회" style="html=1;verticalAlign=bottom;endArrow=block;curved=0;rounded=0;fontSize=12;startSize=8;endSize=8;" edge="1" parent="nsABx-BomZK_lhBhXkGz-1">
          <mxGeometry x="0.0001" width="80" relative="1" as="geometry">
            <mxPoint x="392.5" y="240" as="sourcePoint" />
            <mxPoint x="720" y="240" as="targetPoint" />
            <mxPoint as="offset" />
          </mxGeometry>
        </mxCell>
        <mxCell id="nsABx-BomZK_lhBhXkGz-24" value="사용자 관리&lt;div&gt;DB&lt;/div&gt;" style="shape=cylinder3;whiteSpace=wrap;html=1;boundedLbl=1;backgroundOutline=1;size=15;" vertex="1" parent="nsABx-BomZK_lhBhXkGz-1">
          <mxGeometry x="690" y="70" width="100" height="80" as="geometry" />
        </mxCell>
        <mxCell id="nsABx-BomZK_lhBhXkGz-25" value="" style="endArrow=none;dashed=1;html=1;rounded=0;fontSize=12;startSize=8;endSize=8;curved=1;entryX=0.5;entryY=1;entryDx=0;entryDy=0;entryPerimeter=0;" edge="1" parent="nsABx-BomZK_lhBhXkGz-1" target="nsABx-BomZK_lhBhXkGz-24" source="nsABx-BomZK_lhBhXkGz-27">
          <mxGeometry width="50" height="50" relative="1" as="geometry">
            <mxPoint x="740" y="610" as="sourcePoint" />
            <mxPoint x="470" y="410" as="targetPoint" />
          </mxGeometry>
        </mxCell>
        <mxCell id="nsABx-BomZK_lhBhXkGz-26" value="" style="endArrow=none;dashed=1;html=1;rounded=0;fontSize=12;startSize=8;endSize=8;curved=1;entryX=0.5;entryY=1;entryDx=0;entryDy=0;entryPerimeter=0;" edge="1" parent="nsABx-BomZK_lhBhXkGz-1" target="nsABx-BomZK_lhBhXkGz-27">
          <mxGeometry width="50" height="50" relative="1" as="geometry">
            <mxPoint x="740" y="390" as="sourcePoint" />
            <mxPoint x="740" y="150" as="targetPoint" />
          </mxGeometry>
        </mxCell>
        <mxCell id="nsABx-BomZK_lhBhXkGz-27" value="" style="rounded=0;whiteSpace=wrap;html=1;" vertex="1" parent="nsABx-BomZK_lhBhXkGz-1">
          <mxGeometry x="727.5" y="220" width="25" height="30" as="geometry" />
        </mxCell>
        <mxCell id="8yDEfERro98cYOpVccPg-1" value="해당 회원에게 이용 중인 좌석 정보가 없으면,&lt;div&gt;이용이 불가능한 서비스라고 공지&lt;/div&gt;" style="html=1;verticalAlign=bottom;endArrow=block;curved=0;rounded=0;fontSize=12;startSize=8;endSize=8;exitX=-0.033;exitY=0.848;exitDx=0;exitDy=0;exitPerimeter=0;" edge="1" parent="nsABx-BomZK_lhBhXkGz-1">
          <mxGeometry width="80" relative="1" as="geometry">
            <mxPoint x="367.5" y="274.5" as="sourcePoint" />
            <mxPoint x="130" y="274.5" as="targetPoint" />
          </mxGeometry>
        </mxCell>
      </root>
    </mxGraphModel>
  </diagram>
  <diagram name="좌석 반납" id="8VdD1YzRlduRzywfWi3p">
    <mxGraphModel dx="594" dy="738" grid="1" gridSize="10" guides="1" tooltips="1" connect="1" arrows="1" fold="1" page="1" pageScale="1" pageWidth="850" pageHeight="1100" math="0" shadow="0">
      <root>
        <mxCell id="kwXg_oF9q3oiJeOSXN9p-0" />
        <mxCell id="kwXg_oF9q3oiJeOSXN9p-1" parent="kwXg_oF9q3oiJeOSXN9p-0" />
        <mxCell id="kwXg_oF9q3oiJeOSXN9p-2" value="회원" style="shape=umlActor;verticalLabelPosition=bottom;verticalAlign=top;html=1;outlineConnect=0;" vertex="1" parent="kwXg_oF9q3oiJeOSXN9p-1">
          <mxGeometry x="100" y="80" width="30" height="60" as="geometry" />
        </mxCell>
        <mxCell id="kwXg_oF9q3oiJeOSXN9p-3" value="" style="endArrow=none;dashed=1;html=1;rounded=0;fontSize=12;startSize=8;endSize=8;curved=1;" edge="1" parent="kwXg_oF9q3oiJeOSXN9p-1" source="kwXg_oF9q3oiJeOSXN9p-17">
          <mxGeometry width="50" height="50" relative="1" as="geometry">
            <mxPoint x="114" y="720" as="sourcePoint" />
            <mxPoint x="114.5" y="170" as="targetPoint" />
          </mxGeometry>
        </mxCell>
        <mxCell id="kwXg_oF9q3oiJeOSXN9p-4" value="좌석 반납" style="text;html=1;align=center;verticalAlign=middle;whiteSpace=wrap;rounded=0;fontSize=16;" vertex="1" parent="kwXg_oF9q3oiJeOSXN9p-1">
          <mxGeometry x="50" y="30" width="120" height="30" as="geometry" />
        </mxCell>
        <mxCell id="kwXg_oF9q3oiJeOSXN9p-5" value="좌석 관리 서버" style="rounded=1;whiteSpace=wrap;html=1;" vertex="1" parent="kwXg_oF9q3oiJeOSXN9p-1">
          <mxGeometry x="320" y="80" width="120" height="60" as="geometry" />
        </mxCell>
        <mxCell id="kwXg_oF9q3oiJeOSXN9p-6" value="좌석 관리&lt;div&gt;DB&lt;/div&gt;" style="shape=cylinder3;whiteSpace=wrap;html=1;boundedLbl=1;backgroundOutline=1;size=15;" vertex="1" parent="kwXg_oF9q3oiJeOSXN9p-1">
          <mxGeometry x="555" y="70" width="100" height="80" as="geometry" />
        </mxCell>
        <mxCell id="kwXg_oF9q3oiJeOSXN9p-7" value="" style="endArrow=none;dashed=1;html=1;dashPattern=1 3;strokeWidth=2;rounded=0;fontSize=12;startSize=8;endSize=8;curved=1;entryX=0.5;entryY=1;entryDx=0;entryDy=0;" edge="1" parent="kwXg_oF9q3oiJeOSXN9p-1" target="kwXg_oF9q3oiJeOSXN9p-5">
          <mxGeometry width="50" height="50" relative="1" as="geometry">
            <mxPoint x="380" y="440" as="sourcePoint" />
            <mxPoint x="360" y="330" as="targetPoint" />
          </mxGeometry>
        </mxCell>
        <mxCell id="kwXg_oF9q3oiJeOSXN9p-8" value="" style="endArrow=none;dashed=1;html=1;rounded=0;fontSize=12;startSize=8;endSize=8;curved=1;entryX=0.5;entryY=1;entryDx=0;entryDy=0;entryPerimeter=0;" edge="1" parent="kwXg_oF9q3oiJeOSXN9p-1" source="kwXg_oF9q3oiJeOSXN9p-12" target="kwXg_oF9q3oiJeOSXN9p-6">
          <mxGeometry width="50" height="50" relative="1" as="geometry">
            <mxPoint x="603.7368421052631" y="230" as="sourcePoint" />
            <mxPoint x="335" y="410" as="targetPoint" />
          </mxGeometry>
        </mxCell>
        <mxCell id="kwXg_oF9q3oiJeOSXN9p-9" value="" style="rounded=0;whiteSpace=wrap;html=1;" vertex="1" parent="kwXg_oF9q3oiJeOSXN9p-1">
          <mxGeometry x="367.5" y="200" width="25" height="200" as="geometry" />
        </mxCell>
        <mxCell id="kwXg_oF9q3oiJeOSXN9p-10" value="반납 버튼 클릭" style="html=1;verticalAlign=bottom;endArrow=block;curved=0;rounded=0;fontSize=12;startSize=8;endSize=8;" edge="1" parent="kwXg_oF9q3oiJeOSXN9p-1">
          <mxGeometry width="80" relative="1" as="geometry">
            <mxPoint x="120" y="220" as="sourcePoint" />
            <mxPoint x="370" y="220" as="targetPoint" />
          </mxGeometry>
        </mxCell>
        <mxCell id="kwXg_oF9q3oiJeOSXN9p-11" value="" style="endArrow=none;dashed=1;html=1;rounded=0;fontSize=12;startSize=8;endSize=8;curved=1;entryX=0.5;entryY=1;entryDx=0;entryDy=0;entryPerimeter=0;" edge="1" parent="kwXg_oF9q3oiJeOSXN9p-1" target="kwXg_oF9q3oiJeOSXN9p-12">
          <mxGeometry width="50" height="50" relative="1" as="geometry">
            <mxPoint x="605" y="440" as="sourcePoint" />
            <mxPoint x="605" y="150" as="targetPoint" />
          </mxGeometry>
        </mxCell>
        <mxCell id="kwXg_oF9q3oiJeOSXN9p-12" value="" style="rounded=0;whiteSpace=wrap;html=1;" vertex="1" parent="kwXg_oF9q3oiJeOSXN9p-1">
          <mxGeometry x="592.5" y="320" width="25" height="30" as="geometry" />
        </mxCell>
        <mxCell id="kwXg_oF9q3oiJeOSXN9p-13" value="해당 좌석의 상태를 대여 가능으로 변경" style="html=1;verticalAlign=bottom;endArrow=block;curved=0;rounded=0;fontSize=12;startSize=8;endSize=8;entryX=0;entryY=0.5;entryDx=0;entryDy=0;exitX=1.02;exitY=0.675;exitDx=0;exitDy=0;exitPerimeter=0;" edge="1" parent="kwXg_oF9q3oiJeOSXN9p-1" target="kwXg_oF9q3oiJeOSXN9p-12" source="kwXg_oF9q3oiJeOSXN9p-9">
          <mxGeometry x="0.0057" width="80" relative="1" as="geometry">
            <mxPoint x="392.5" y="330" as="sourcePoint" />
            <mxPoint x="567.5" y="330.5" as="targetPoint" />
            <mxPoint as="offset" />
          </mxGeometry>
        </mxCell>
        <mxCell id="kwXg_oF9q3oiJeOSXN9p-15" value="" style="endArrow=none;dashed=1;html=1;rounded=0;fontSize=12;startSize=8;endSize=8;curved=1;entryX=0.5;entryY=1;entryDx=0;entryDy=0;" edge="1" parent="kwXg_oF9q3oiJeOSXN9p-1" target="kwXg_oF9q3oiJeOSXN9p-17">
          <mxGeometry width="50" height="50" relative="1" as="geometry">
            <mxPoint x="115" y="470" as="sourcePoint" />
            <mxPoint x="115" y="325" as="targetPoint" />
          </mxGeometry>
        </mxCell>
        <mxCell id="kwXg_oF9q3oiJeOSXN9p-16" value="" style="endArrow=none;dashed=1;html=1;rounded=0;fontSize=12;startSize=8;endSize=8;curved=1;" edge="1" parent="kwXg_oF9q3oiJeOSXN9p-1" target="kwXg_oF9q3oiJeOSXN9p-17">
          <mxGeometry width="50" height="50" relative="1" as="geometry">
            <mxPoint x="115" y="295" as="sourcePoint" />
            <mxPoint x="114.5" y="170" as="targetPoint" />
          </mxGeometry>
        </mxCell>
        <mxCell id="kwXg_oF9q3oiJeOSXN9p-17" value="" style="rounded=0;whiteSpace=wrap;html=1;" vertex="1" parent="kwXg_oF9q3oiJeOSXN9p-1">
          <mxGeometry x="100" y="200" width="30" height="210" as="geometry" />
        </mxCell>
        <mxCell id="kwXg_oF9q3oiJeOSXN9p-18" value="해당 회원의 상태를 이용 중이지 않음으로 변경" style="html=1;verticalAlign=bottom;endArrow=block;curved=0;rounded=0;fontSize=12;startSize=8;endSize=8;" edge="1" parent="kwXg_oF9q3oiJeOSXN9p-1" target="kwXg_oF9q3oiJeOSXN9p-22">
          <mxGeometry x="0.0001" width="80" relative="1" as="geometry">
            <mxPoint x="392.5" y="376" as="sourcePoint" />
            <mxPoint x="720" y="376" as="targetPoint" />
            <mxPoint as="offset" />
          </mxGeometry>
        </mxCell>
        <mxCell id="kwXg_oF9q3oiJeOSXN9p-19" value="사용자 관리&lt;div&gt;DB&lt;/div&gt;" style="shape=cylinder3;whiteSpace=wrap;html=1;boundedLbl=1;backgroundOutline=1;size=15;" vertex="1" parent="kwXg_oF9q3oiJeOSXN9p-1">
          <mxGeometry x="690" y="70" width="100" height="80" as="geometry" />
        </mxCell>
        <mxCell id="kwXg_oF9q3oiJeOSXN9p-20" value="" style="endArrow=none;dashed=1;html=1;rounded=0;fontSize=12;startSize=8;endSize=8;curved=1;entryX=0.5;entryY=1;entryDx=0;entryDy=0;entryPerimeter=0;" edge="1" parent="kwXg_oF9q3oiJeOSXN9p-1" source="kwXg_oF9q3oiJeOSXN9p-22" target="kwXg_oF9q3oiJeOSXN9p-19">
          <mxGeometry width="50" height="50" relative="1" as="geometry">
            <mxPoint x="740" y="610" as="sourcePoint" />
            <mxPoint x="470" y="410" as="targetPoint" />
          </mxGeometry>
        </mxCell>
        <mxCell id="kwXg_oF9q3oiJeOSXN9p-21" value="" style="endArrow=none;dashed=1;html=1;rounded=0;fontSize=12;startSize=8;endSize=8;curved=1;entryX=0.5;entryY=1;entryDx=0;entryDy=0;entryPerimeter=0;" edge="1" parent="kwXg_oF9q3oiJeOSXN9p-1" target="kwXg_oF9q3oiJeOSXN9p-22">
          <mxGeometry width="50" height="50" relative="1" as="geometry">
            <mxPoint x="740" y="490" as="sourcePoint" />
            <mxPoint x="740" y="150" as="targetPoint" />
          </mxGeometry>
        </mxCell>
        <mxCell id="kwXg_oF9q3oiJeOSXN9p-22" value="" style="rounded=0;whiteSpace=wrap;html=1;" vertex="1" parent="kwXg_oF9q3oiJeOSXN9p-1">
          <mxGeometry x="727.5" y="360" width="25" height="30" as="geometry" />
        </mxCell>
        <mxCell id="kwXg_oF9q3oiJeOSXN9p-23" value="정말로 반납할 건지 재차 확인 메시지 전송" style="html=1;verticalAlign=bottom;endArrow=block;curved=0;rounded=0;fontSize=12;startSize=8;endSize=8;exitX=-0.033;exitY=0.848;exitDx=0;exitDy=0;exitPerimeter=0;" edge="1" parent="kwXg_oF9q3oiJeOSXN9p-1">
          <mxGeometry width="80" relative="1" as="geometry">
            <mxPoint x="367.5" y="265.5" as="sourcePoint" />
            <mxPoint x="130" y="265.5" as="targetPoint" />
          </mxGeometry>
        </mxCell>
        <mxCell id="_l1RK4QAukfhr_Tx77an-0" value="반납하기 버튼 클릭" style="html=1;verticalAlign=bottom;endArrow=block;curved=0;rounded=0;fontSize=12;startSize=8;endSize=8;entryX=0;entryY=0.5;entryDx=0;entryDy=0;" edge="1" parent="kwXg_oF9q3oiJeOSXN9p-1" target="kwXg_oF9q3oiJeOSXN9p-9">
          <mxGeometry x="0.0019" width="80" relative="1" as="geometry">
            <mxPoint x="130" y="301.5" as="sourcePoint" />
            <mxPoint x="360" y="310" as="targetPoint" />
            <mxPoint as="offset" />
          </mxGeometry>
        </mxCell>
        <mxCell id="_l1RK4QAukfhr_Tx77an-2" style="edgeStyle=none;curved=1;rounded=0;orthogonalLoop=1;jettySize=auto;html=1;entryX=0;entryY=0.5;entryDx=0;entryDy=0;fontSize=12;startSize=8;endSize=8;" edge="1" parent="kwXg_oF9q3oiJeOSXN9p-1" source="kwXg_oF9q3oiJeOSXN9p-22" target="kwXg_oF9q3oiJeOSXN9p-22">
          <mxGeometry relative="1" as="geometry" />
        </mxCell>
        <mxCell id="_l1RK4QAukfhr_Tx77an-3" value="정상적으로 반납이 완료되었음을 공지" style="html=1;verticalAlign=bottom;endArrow=block;curved=0;rounded=0;fontSize=12;startSize=8;endSize=8;exitX=-0.033;exitY=0.848;exitDx=0;exitDy=0;exitPerimeter=0;" edge="1" parent="kwXg_oF9q3oiJeOSXN9p-1">
          <mxGeometry width="80" relative="1" as="geometry">
            <mxPoint x="367.5" y="390" as="sourcePoint" />
            <mxPoint x="130" y="390" as="targetPoint" />
          </mxGeometry>
        </mxCell>
      </root>
    </mxGraphModel>
  </diagram>
  <diagram name="시간 연장" id="OO1coq4F_BpUvdBKQHk6">
    <mxGraphModel dx="990" dy="1230" grid="1" gridSize="10" guides="1" tooltips="1" connect="1" arrows="1" fold="1" page="1" pageScale="1" pageWidth="850" pageHeight="1100" math="0" shadow="0">
      <root>
        <mxCell id="HI9lY-tAYUMj1OGBsxrr-0" />
        <mxCell id="HI9lY-tAYUMj1OGBsxrr-1" parent="HI9lY-tAYUMj1OGBsxrr-0" />
        <mxCell id="HI9lY-tAYUMj1OGBsxrr-2" value="회원" style="shape=umlActor;verticalLabelPosition=bottom;verticalAlign=top;html=1;outlineConnect=0;" vertex="1" parent="HI9lY-tAYUMj1OGBsxrr-1">
          <mxGeometry x="160" y="150" width="30" height="60" as="geometry" />
        </mxCell>
        <mxCell id="HI9lY-tAYUMj1OGBsxrr-3" value="" style="endArrow=none;dashed=1;html=1;rounded=0;fontSize=12;startSize=8;endSize=8;curved=1;" edge="1" parent="HI9lY-tAYUMj1OGBsxrr-1" source="HI9lY-tAYUMj1OGBsxrr-17">
          <mxGeometry width="50" height="50" relative="1" as="geometry">
            <mxPoint x="174" y="790" as="sourcePoint" />
            <mxPoint x="174.5" y="240" as="targetPoint" />
          </mxGeometry>
        </mxCell>
        <mxCell id="HI9lY-tAYUMj1OGBsxrr-4" value="시간 연장" style="text;html=1;align=center;verticalAlign=middle;whiteSpace=wrap;rounded=0;fontSize=16;" vertex="1" parent="HI9lY-tAYUMj1OGBsxrr-1">
          <mxGeometry x="110" y="100" width="110" height="30" as="geometry" />
        </mxCell>
        <mxCell id="HI9lY-tAYUMj1OGBsxrr-5" value="좌석 관리 서버" style="rounded=1;whiteSpace=wrap;html=1;" vertex="1" parent="HI9lY-tAYUMj1OGBsxrr-1">
          <mxGeometry x="346" y="150" width="120" height="60" as="geometry" />
        </mxCell>
        <mxCell id="HI9lY-tAYUMj1OGBsxrr-6" value="좌석 관리&lt;div&gt;DB&lt;/div&gt;" style="shape=cylinder3;whiteSpace=wrap;html=1;boundedLbl=1;backgroundOutline=1;size=15;" vertex="1" parent="HI9lY-tAYUMj1OGBsxrr-1">
          <mxGeometry x="602" y="140" width="100" height="80" as="geometry" />
        </mxCell>
        <mxCell id="HI9lY-tAYUMj1OGBsxrr-7" value="" style="endArrow=none;dashed=1;html=1;dashPattern=1 3;strokeWidth=2;rounded=0;fontSize=12;startSize=8;endSize=8;curved=1;entryX=0.5;entryY=1;entryDx=0;entryDy=0;" edge="1" parent="HI9lY-tAYUMj1OGBsxrr-1" target="HI9lY-tAYUMj1OGBsxrr-5">
          <mxGeometry width="50" height="50" relative="1" as="geometry">
            <mxPoint x="410" y="680" as="sourcePoint" />
            <mxPoint x="386" y="400" as="targetPoint" />
          </mxGeometry>
        </mxCell>
        <mxCell id="HI9lY-tAYUMj1OGBsxrr-8" value="" style="endArrow=none;dashed=1;html=1;rounded=0;fontSize=12;startSize=8;endSize=8;curved=1;entryX=0.5;entryY=1;entryDx=0;entryDy=0;entryPerimeter=0;" edge="1" parent="HI9lY-tAYUMj1OGBsxrr-1" source="HI9lY-tAYUMj1OGBsxrr-12" target="HI9lY-tAYUMj1OGBsxrr-6">
          <mxGeometry width="50" height="50" relative="1" as="geometry">
            <mxPoint x="650.7368421052631" y="300" as="sourcePoint" />
            <mxPoint x="382" y="480" as="targetPoint" />
          </mxGeometry>
        </mxCell>
        <mxCell id="HI9lY-tAYUMj1OGBsxrr-9" value="" style="rounded=0;whiteSpace=wrap;html=1;" vertex="1" parent="HI9lY-tAYUMj1OGBsxrr-1">
          <mxGeometry x="393.5" y="270" width="25" height="320" as="geometry" />
        </mxCell>
        <mxCell id="HI9lY-tAYUMj1OGBsxrr-10" value="시간 연장 버튼 클릭" style="html=1;verticalAlign=bottom;endArrow=block;curved=0;rounded=0;fontSize=12;startSize=8;endSize=8;" edge="1" parent="HI9lY-tAYUMj1OGBsxrr-1">
          <mxGeometry width="80" relative="1" as="geometry">
            <mxPoint x="180" y="290" as="sourcePoint" />
            <mxPoint x="390" y="290" as="targetPoint" />
          </mxGeometry>
        </mxCell>
        <mxCell id="HI9lY-tAYUMj1OGBsxrr-11" value="" style="endArrow=none;dashed=1;html=1;rounded=0;fontSize=12;startSize=8;endSize=8;curved=1;entryX=0.5;entryY=1;entryDx=0;entryDy=0;entryPerimeter=0;" edge="1" parent="HI9lY-tAYUMj1OGBsxrr-1" target="HI9lY-tAYUMj1OGBsxrr-12" source="-m4m8Yed8xDFs7L5pCTj-3">
          <mxGeometry width="50" height="50" relative="1" as="geometry">
            <mxPoint x="652" y="700" as="sourcePoint" />
            <mxPoint x="652" y="220" as="targetPoint" />
          </mxGeometry>
        </mxCell>
        <mxCell id="HI9lY-tAYUMj1OGBsxrr-12" value="" style="rounded=0;whiteSpace=wrap;html=1;" vertex="1" parent="HI9lY-tAYUMj1OGBsxrr-1">
          <mxGeometry x="639.5" y="293" width="25" height="30" as="geometry" />
        </mxCell>
        <mxCell id="HI9lY-tAYUMj1OGBsxrr-13" value="연장하기 버튼 클릭" style="html=1;verticalAlign=bottom;endArrow=block;curved=0;rounded=0;fontSize=12;startSize=8;endSize=8;" edge="1" parent="HI9lY-tAYUMj1OGBsxrr-1">
          <mxGeometry x="0.0019" width="80" relative="1" as="geometry">
            <mxPoint x="190" y="470" as="sourcePoint" />
            <mxPoint x="390" y="470" as="targetPoint" />
            <mxPoint as="offset" />
          </mxGeometry>
        </mxCell>
        <mxCell id="HI9lY-tAYUMj1OGBsxrr-14" value="정상적으로 연장되었음을 공지" style="html=1;verticalAlign=bottom;endArrow=block;curved=0;rounded=0;fontSize=12;startSize=8;endSize=8;exitX=-0.033;exitY=0.848;exitDx=0;exitDy=0;exitPerimeter=0;entryX=1.067;entryY=0.812;entryDx=0;entryDy=0;entryPerimeter=0;" edge="1" parent="HI9lY-tAYUMj1OGBsxrr-1" target="HI9lY-tAYUMj1OGBsxrr-17">
          <mxGeometry width="80" relative="1" as="geometry">
            <mxPoint x="393.5" y="540" as="sourcePoint" />
            <mxPoint x="156" y="540" as="targetPoint" />
          </mxGeometry>
        </mxCell>
        <mxCell id="HI9lY-tAYUMj1OGBsxrr-15" value="" style="endArrow=none;dashed=1;html=1;rounded=0;fontSize=12;startSize=8;endSize=8;curved=1;entryX=0.5;entryY=1;entryDx=0;entryDy=0;" edge="1" parent="HI9lY-tAYUMj1OGBsxrr-1" target="HI9lY-tAYUMj1OGBsxrr-17">
          <mxGeometry width="50" height="50" relative="1" as="geometry">
            <mxPoint x="175" y="680" as="sourcePoint" />
            <mxPoint x="175" y="395" as="targetPoint" />
          </mxGeometry>
        </mxCell>
        <mxCell id="HI9lY-tAYUMj1OGBsxrr-16" value="" style="endArrow=none;dashed=1;html=1;rounded=0;fontSize=12;startSize=8;endSize=8;curved=1;" edge="1" parent="HI9lY-tAYUMj1OGBsxrr-1" target="HI9lY-tAYUMj1OGBsxrr-17">
          <mxGeometry width="50" height="50" relative="1" as="geometry">
            <mxPoint x="175" y="365" as="sourcePoint" />
            <mxPoint x="174.5" y="240" as="targetPoint" />
          </mxGeometry>
        </mxCell>
        <mxCell id="HI9lY-tAYUMj1OGBsxrr-17" value="" style="rounded=0;whiteSpace=wrap;html=1;" vertex="1" parent="HI9lY-tAYUMj1OGBsxrr-1">
          <mxGeometry x="160" y="270" width="30" height="330" as="geometry" />
        </mxCell>
        <mxCell id="HI9lY-tAYUMj1OGBsxrr-18" value="해당 좌석의 잔여 시간 조회" style="html=1;verticalAlign=bottom;endArrow=block;curved=0;rounded=0;fontSize=12;startSize=8;endSize=8;entryX=0;entryY=0.5;entryDx=0;entryDy=0;exitX=1.14;exitY=0.109;exitDx=0;exitDy=0;exitPerimeter=0;" edge="1" parent="HI9lY-tAYUMj1OGBsxrr-1" target="HI9lY-tAYUMj1OGBsxrr-12" source="HI9lY-tAYUMj1OGBsxrr-9">
          <mxGeometry x="0.0001" width="80" relative="1" as="geometry">
            <mxPoint x="452.5" y="310" as="sourcePoint" />
            <mxPoint x="620" y="310" as="targetPoint" />
            <mxPoint as="offset" />
          </mxGeometry>
        </mxCell>
        <mxCell id="HI9lY-tAYUMj1OGBsxrr-23" value="30분 이상 남았을 경우,&lt;div&gt;연장 기능 사용 불가능하다고 공지&lt;/div&gt;&lt;div&gt;30분 이내라면, 시간 연장할 건지 질문&amp;nbsp;&lt;/div&gt;" style="html=1;verticalAlign=bottom;endArrow=block;curved=0;rounded=0;fontSize=12;startSize=8;endSize=8;exitX=-0.033;exitY=0.848;exitDx=0;exitDy=0;exitPerimeter=0;" edge="1" parent="HI9lY-tAYUMj1OGBsxrr-1">
          <mxGeometry x="0.0025" width="80" relative="1" as="geometry">
            <mxPoint x="393.5" y="410" as="sourcePoint" />
            <mxPoint x="190" y="410" as="targetPoint" />
            <mxPoint as="offset" />
          </mxGeometry>
        </mxCell>
        <mxCell id="-m4m8Yed8xDFs7L5pCTj-0" value="" style="html=1;points=[[0,0,0,0,5],[0,1,0,0,-5],[1,0,0,0,5],[1,1,0,0,-5]];perimeter=orthogonalPerimeter;outlineConnect=0;targetShapes=umlLifeline;portConstraint=eastwest;newEdgeStyle={&quot;curved&quot;:0,&quot;rounded&quot;:0};" vertex="1" parent="HI9lY-tAYUMj1OGBsxrr-1">
          <mxGeometry x="416" y="350" width="10" height="40" as="geometry" />
        </mxCell>
        <mxCell id="-m4m8Yed8xDFs7L5pCTj-1" value="잔여 시간이 30분 이내인지 확인" style="html=1;align=left;spacingLeft=2;endArrow=block;rounded=0;edgeStyle=orthogonalEdgeStyle;curved=0;rounded=0;fontSize=12;startSize=8;endSize=8;" edge="1" target="-m4m8Yed8xDFs7L5pCTj-0" parent="HI9lY-tAYUMj1OGBsxrr-1">
          <mxGeometry relative="1" as="geometry">
            <mxPoint x="421" y="330" as="sourcePoint" />
            <Array as="points">
              <mxPoint x="451" y="360" />
            </Array>
          </mxGeometry>
        </mxCell>
        <mxCell id="-m4m8Yed8xDFs7L5pCTj-2" value="해당 좌석의 잔여 시간 업데이트" style="html=1;verticalAlign=bottom;endArrow=block;curved=0;rounded=0;fontSize=12;startSize=8;endSize=8;entryX=0;entryY=0.5;entryDx=0;entryDy=0;exitX=1.14;exitY=0.109;exitDx=0;exitDy=0;exitPerimeter=0;" edge="1" parent="HI9lY-tAYUMj1OGBsxrr-1">
          <mxGeometry x="0.0001" width="80" relative="1" as="geometry">
            <mxPoint x="418.5" y="510" as="sourcePoint" />
            <mxPoint x="636.5" y="513" as="targetPoint" />
            <mxPoint as="offset" />
          </mxGeometry>
        </mxCell>
        <mxCell id="-m4m8Yed8xDFs7L5pCTj-4" value="" style="endArrow=none;dashed=1;html=1;rounded=0;fontSize=12;startSize=8;endSize=8;curved=1;entryX=0.5;entryY=1;entryDx=0;entryDy=0;entryPerimeter=0;" edge="1" parent="HI9lY-tAYUMj1OGBsxrr-1" target="-m4m8Yed8xDFs7L5pCTj-3">
          <mxGeometry width="50" height="50" relative="1" as="geometry">
            <mxPoint x="652" y="670" as="sourcePoint" />
            <mxPoint x="652" y="323" as="targetPoint" />
          </mxGeometry>
        </mxCell>
        <mxCell id="-m4m8Yed8xDFs7L5pCTj-3" value="" style="rounded=0;whiteSpace=wrap;html=1;" vertex="1" parent="HI9lY-tAYUMj1OGBsxrr-1">
          <mxGeometry x="639.5" y="496" width="25" height="30" as="geometry" />
        </mxCell>
      </root>
    </mxGraphModel>
  </diagram>
</mxfile>
